<svg width="686" height="1245" viewBox="0 0 686 1245" fill="none" xmlns="http://www.w3.org/2000/svg">
<g filter="url(#filter0_d_117_144)">
<path d="M229 0H217V1135H229V0Z" fill="#4857F6"/>
<path d="M467 0H455V1095H467V0Z" fill="#4857F6"/>
<rect x="172.533" y="1062.64" width="339.352" height="174" fill="black"/>
<path d="M207.319 1089.87L208.809 1087.99V1101.03L207.745 1099.99H219.296V1102.89H207.745L208.809 1101.79V1115.51H205.52V1086.97H221.019V1089.87H207.319ZM230.061 1115.89C228.5 1115.89 227.132 1115.65 225.959 1115.16C224.798 1114.67 223.895 1113.96 223.25 1113.05C222.605 1112.12 222.282 1111.01 222.282 1109.72C222.282 1108.38 222.631 1107.26 223.327 1106.37C224.024 1105.47 225.004 1104.77 226.268 1104.26C227.532 1103.76 229.003 1103.43 230.68 1103.26C233.208 1103 235.008 1102.75 236.078 1102.5C237.149 1102.24 237.684 1101.83 237.684 1101.26C237.684 1101.25 237.684 1101.25 237.684 1101.25C237.684 1101.23 237.684 1101.22 237.684 1101.21C237.684 1100.02 237.2 1099.14 236.233 1098.56C235.265 1097.96 233.866 1097.67 232.034 1097.67C230.125 1097.67 228.642 1098 227.584 1098.67C226.526 1099.33 225.997 1100.4 225.997 1101.88H222.747C222.747 1100.35 223.14 1099.05 223.927 1097.98C224.714 1096.89 225.804 1096.07 227.197 1095.5C228.603 1094.93 230.222 1094.65 232.054 1094.65C233.73 1094.65 235.24 1094.91 236.581 1095.42C237.936 1095.92 239.006 1096.68 239.793 1097.68C240.593 1098.68 240.993 1099.91 240.993 1101.38C240.993 1101.65 240.993 1101.92 240.993 1102.19C240.993 1102.45 240.993 1102.72 240.993 1102.99V1111.64C240.993 1112.09 241.012 1112.53 241.051 1112.95C241.09 1113.38 241.154 1113.75 241.244 1114.07C241.36 1114.46 241.489 1114.78 241.631 1115.02C241.773 1115.25 241.889 1115.42 241.98 1115.51H238.671C238.606 1115.44 238.51 1115.29 238.381 1115.06C238.252 1114.82 238.129 1114.53 238.013 1114.21C237.923 1113.95 237.852 1113.63 237.8 1113.24C237.749 1112.84 237.723 1112.43 237.723 1112L238.265 1112.37C237.865 1113.07 237.278 1113.68 236.504 1114.21C235.743 1114.74 234.82 1115.15 233.737 1115.45C232.653 1115.74 231.428 1115.89 230.061 1115.89ZM230.583 1112.93C231.912 1112.93 233.111 1112.73 234.182 1112.33C235.253 1111.92 236.104 1111.31 236.736 1110.51C237.368 1109.71 237.684 1108.72 237.684 1107.53V1103.45L238.419 1104.69C237.594 1105.01 236.562 1105.28 235.324 1105.48C234.098 1105.68 232.815 1105.84 231.473 1105.97C229.525 1106.15 228.055 1106.49 227.062 1106.99C226.081 1107.49 225.591 1108.34 225.591 1109.53C225.591 1110.65 225.997 1111.5 226.81 1112.08C227.623 1112.65 228.88 1112.93 230.583 1112.93ZM248.844 1085.26V1115.51H245.593V1085.26H248.844ZM257.244 1085.26V1115.51H253.993V1085.26H257.244ZM269.282 1115.89C267.721 1115.89 266.354 1115.65 265.18 1115.16C264.019 1114.67 263.116 1113.96 262.471 1113.05C261.826 1112.12 261.503 1111.01 261.503 1109.72C261.503 1108.38 261.852 1107.26 262.548 1106.37C263.245 1105.47 264.225 1104.77 265.489 1104.26C266.753 1103.76 268.224 1103.43 269.901 1103.26C272.429 1103 274.229 1102.75 275.299 1102.5C276.37 1102.24 276.905 1101.83 276.905 1101.26C276.905 1101.25 276.905 1101.25 276.905 1101.25C276.905 1101.23 276.905 1101.22 276.905 1101.21C276.905 1100.02 276.421 1099.14 275.454 1098.56C274.487 1097.96 273.087 1097.67 271.255 1097.67C269.346 1097.67 267.863 1098 266.805 1098.67C265.747 1099.33 265.218 1100.4 265.218 1101.88H261.968C261.968 1100.35 262.361 1099.05 263.148 1097.98C263.935 1096.89 265.025 1096.07 266.418 1095.5C267.824 1094.93 269.443 1094.65 271.275 1094.65C272.952 1094.65 274.461 1094.91 275.802 1095.42C277.157 1095.92 278.227 1096.68 279.014 1097.68C279.814 1098.68 280.214 1099.91 280.214 1101.38C280.214 1101.65 280.214 1101.92 280.214 1102.19C280.214 1102.45 280.214 1102.72 280.214 1102.99V1111.64C280.214 1112.09 280.233 1112.53 280.272 1112.95C280.311 1113.38 280.375 1113.75 280.465 1114.07C280.582 1114.46 280.711 1114.78 280.852 1115.02C280.994 1115.25 281.11 1115.42 281.201 1115.51H277.892C277.827 1115.44 277.731 1115.29 277.602 1115.06C277.473 1114.82 277.35 1114.53 277.234 1114.21C277.144 1113.95 277.073 1113.63 277.021 1113.24C276.97 1112.84 276.944 1112.43 276.944 1112L277.486 1112.37C277.086 1113.07 276.499 1113.68 275.725 1114.21C274.964 1114.74 274.042 1115.15 272.958 1115.45C271.874 1115.74 270.649 1115.89 269.282 1115.89ZM269.804 1112.93C271.133 1112.93 272.332 1112.73 273.403 1112.33C274.474 1111.92 275.325 1111.31 275.957 1110.51C276.589 1109.71 276.905 1108.72 276.905 1107.53V1103.45L277.64 1104.69C276.815 1105.01 275.783 1105.28 274.545 1105.48C273.319 1105.68 272.036 1105.84 270.694 1105.97C268.746 1106.15 267.276 1106.49 266.283 1106.99C265.302 1107.49 264.812 1108.34 264.812 1109.53C264.812 1110.65 265.218 1111.5 266.031 1112.08C266.844 1112.65 268.101 1112.93 269.804 1112.93ZM294.276 1115.89C292.315 1115.89 290.535 1115.47 288.935 1114.62C287.336 1113.75 286.065 1112.52 285.124 1110.92C284.195 1109.32 283.731 1107.42 283.731 1105.21C283.731 1103.01 284.195 1101.12 285.124 1099.54C286.065 1097.96 287.336 1096.74 288.935 1095.9C290.535 1095.07 292.315 1094.65 294.276 1094.65C295.772 1094.65 297.107 1094.88 298.281 1095.34C299.455 1095.8 300.448 1096.4 301.261 1097.16C302.073 1097.92 302.693 1098.76 303.118 1099.68C303.557 1100.58 303.776 1101.48 303.776 1102.39C303.776 1102.4 303.776 1102.42 303.776 1102.44C303.776 1102.47 303.776 1102.5 303.776 1102.52H300.506C300.506 1102.46 300.5 1102.39 300.487 1102.31C300.474 1102.22 300.461 1102.13 300.448 1102.04C300.345 1101.17 300.016 1100.42 299.461 1099.77C298.907 1099.12 298.184 1098.6 297.294 1098.23C296.404 1097.85 295.392 1097.67 294.256 1097.67C292.979 1097.67 291.793 1097.94 290.696 1098.5C289.613 1099.04 288.736 1099.87 288.065 1100.99C287.407 1102.1 287.078 1103.51 287.078 1105.21C287.078 1106.9 287.407 1108.31 288.065 1109.45C288.723 1110.58 289.593 1111.44 290.677 1112.02C291.773 1112.59 292.966 1112.87 294.256 1112.87C295.65 1112.87 296.798 1112.65 297.701 1112.22C298.604 1111.78 299.281 1111.2 299.732 1110.47C300.197 1109.74 300.455 1108.95 300.506 1108.11H303.776C303.776 1109.04 303.57 1109.97 303.157 1110.9C302.744 1111.82 302.138 1112.65 301.338 1113.42C300.538 1114.16 299.545 1114.76 298.358 1115.22C297.185 1115.67 295.824 1115.89 294.276 1115.89ZM307.11 1124.17C306.594 1124.17 306.123 1124.14 305.698 1124.08C305.272 1124.03 305.008 1123.97 304.904 1123.92V1121.06C305.072 1121.14 305.349 1121.2 305.736 1121.25C306.123 1121.3 306.51 1121.33 306.897 1121.33C307.723 1121.33 308.42 1121.16 308.987 1120.81C309.555 1120.47 310.032 1120.01 310.419 1119.41C310.806 1118.83 311.122 1118.18 311.367 1117.44L311.986 1115.62L304.904 1094.96H308.349L314.037 1112.66H313.573L319.145 1094.96H322.531L315.005 1117.27C314.579 1118.52 314.063 1119.67 313.457 1120.71C312.863 1121.76 312.064 1122.59 311.057 1123.23C310.064 1123.86 308.748 1124.17 307.11 1124.17ZM344.396 1115.89C342.732 1115.89 341.204 1115.56 339.81 1114.91C338.43 1114.25 337.224 1113.29 336.192 1112.04C335.173 1110.78 334.38 1109.24 333.812 1107.42C333.258 1105.6 332.98 1103.53 332.98 1101.21C332.98 1098.88 333.258 1096.82 333.812 1095.01C334.38 1093.2 335.173 1091.67 336.192 1090.43C337.224 1089.18 338.437 1088.23 339.83 1087.58C341.223 1086.94 342.745 1086.62 344.396 1086.62C346.06 1086.62 347.589 1086.94 348.982 1087.58C350.375 1088.23 351.581 1089.18 352.6 1090.43C353.632 1091.67 354.425 1093.2 354.98 1095.01C355.548 1096.82 355.831 1098.88 355.831 1101.21C355.831 1103.53 355.548 1105.6 354.98 1107.42C354.425 1109.24 353.632 1110.78 352.6 1112.04C351.581 1113.29 350.375 1114.25 348.982 1114.91C347.589 1115.56 346.06 1115.89 344.396 1115.89ZM344.396 1112.91C345.983 1112.91 347.382 1112.48 348.595 1111.62C349.807 1110.75 350.755 1109.46 351.439 1107.73C352.123 1105.99 352.465 1103.81 352.465 1101.21C352.465 1098.59 352.116 1096.42 351.42 1094.71C350.736 1092.99 349.788 1091.71 348.575 1090.87C347.363 1090.04 345.97 1089.62 344.396 1089.62C342.835 1089.62 341.442 1090.04 340.217 1090.87C339.004 1091.71 338.05 1092.99 337.353 1094.71C336.669 1096.42 336.328 1098.59 336.328 1101.21C336.328 1103.83 336.669 1106.01 337.353 1107.75C338.05 1109.47 339.004 1110.77 340.217 1111.64C341.442 1112.49 342.835 1112.91 344.396 1112.91ZM362.116 1115.51V1097.86H357.627V1094.96H362.116V1092.31C362.116 1091.39 362.219 1090.55 362.426 1089.79C362.645 1089.02 362.955 1088.33 363.355 1087.74C363.767 1087.15 364.264 1086.64 364.844 1086.23C365.425 1085.82 366.083 1085.51 366.818 1085.3C367.566 1085.08 368.379 1084.97 369.256 1084.97C369.888 1084.97 370.391 1085.01 370.765 1085.09C371.139 1085.17 371.391 1085.24 371.52 1085.3V1088.2C371.365 1088.15 371.107 1088.09 370.746 1088.03C370.385 1087.97 369.998 1087.93 369.585 1087.93C368.708 1087.93 367.992 1088.07 367.437 1088.34C366.895 1088.61 366.476 1088.98 366.179 1089.46C365.883 1089.93 365.676 1090.45 365.56 1091.05C365.457 1091.64 365.406 1092.26 365.406 1092.91V1094.96H371.404V1097.86H365.406V1115.51H362.116ZM401.716 1086.97V1115.51H398.407V1101.07L399.897 1102.72H384.166L385.656 1101.07V1115.51H382.347V1086.97H385.656V1101.55L384.166 1099.81H399.897L398.407 1101.55V1086.97H401.716ZM413.426 1115.89C411.865 1115.89 410.498 1115.65 409.324 1115.16C408.163 1114.67 407.26 1113.96 406.615 1113.05C405.97 1112.12 405.648 1111.01 405.648 1109.72C405.648 1108.38 405.996 1107.26 406.692 1106.37C407.389 1105.47 408.369 1104.77 409.633 1104.26C410.898 1103.76 412.368 1103.43 414.045 1103.26C416.573 1103 418.373 1102.75 419.443 1102.5C420.514 1102.24 421.049 1101.83 421.049 1101.26C421.049 1101.25 421.049 1101.25 421.049 1101.25C421.049 1101.23 421.049 1101.22 421.049 1101.21C421.049 1100.02 420.566 1099.14 419.598 1098.56C418.631 1097.96 417.231 1097.67 415.399 1097.67C413.49 1097.67 412.007 1098 410.949 1098.67C409.891 1099.33 409.363 1100.4 409.363 1101.88H406.112C406.112 1100.35 406.505 1099.05 407.292 1097.98C408.079 1096.89 409.169 1096.07 410.562 1095.5C411.968 1094.93 413.587 1094.65 415.419 1094.65C417.096 1094.65 418.605 1094.91 419.946 1095.42C421.301 1095.92 422.372 1096.68 423.158 1097.68C423.958 1098.68 424.358 1099.91 424.358 1101.38C424.358 1101.65 424.358 1101.92 424.358 1102.19C424.358 1102.45 424.358 1102.72 424.358 1102.99V1111.64C424.358 1112.09 424.377 1112.53 424.416 1112.95C424.455 1113.38 424.519 1113.75 424.61 1114.07C424.726 1114.46 424.855 1114.78 424.997 1115.02C425.138 1115.25 425.255 1115.42 425.345 1115.51H422.036C421.972 1115.44 421.875 1115.29 421.746 1115.06C421.617 1114.82 421.494 1114.53 421.378 1114.21C421.288 1113.95 421.217 1113.63 421.165 1113.24C421.114 1112.84 421.088 1112.43 421.088 1112L421.63 1112.37C421.23 1113.07 420.643 1113.68 419.869 1114.21C419.108 1114.74 418.186 1115.15 417.102 1115.45C416.019 1115.74 414.793 1115.89 413.426 1115.89ZM413.948 1112.93C415.277 1112.93 416.477 1112.73 417.547 1112.33C418.618 1111.92 419.469 1111.31 420.101 1110.51C420.733 1109.71 421.049 1108.72 421.049 1107.53V1103.45L421.785 1104.69C420.959 1105.01 419.927 1105.28 418.689 1105.48C417.463 1105.68 416.18 1105.84 414.838 1105.97C412.891 1106.15 411.42 1106.49 410.427 1106.99C409.446 1107.49 408.956 1108.34 408.956 1109.53C408.956 1110.65 409.363 1111.5 410.175 1112.08C410.988 1112.65 412.246 1112.93 413.948 1112.93ZM436.524 1115.89C435.285 1115.89 434.137 1115.76 433.08 1115.51C432.035 1115.23 431.119 1114.85 430.332 1114.34C429.558 1113.83 428.952 1113.2 428.513 1112.45C428.088 1111.7 427.875 1110.84 427.875 1109.87C427.875 1109.77 427.875 1109.67 427.875 1109.57C427.875 1109.45 427.875 1109.35 427.875 1109.27H431.183C431.183 1109.35 431.183 1109.42 431.183 1109.47C431.183 1109.52 431.183 1109.6 431.183 1109.7C431.183 1110.75 431.667 1111.55 432.635 1112.1C433.602 1112.64 434.924 1112.91 436.601 1112.91C437.633 1112.91 438.555 1112.81 439.368 1112.6C440.181 1112.4 440.819 1112.08 441.284 1111.65C441.761 1111.23 442 1110.69 442 1110.05C442 1108.98 441.496 1108.22 440.49 1107.77C439.497 1107.3 438.007 1106.9 436.021 1106.57C434.976 1106.39 433.983 1106.15 433.041 1105.87C432.099 1105.57 431.261 1105.19 430.526 1104.73C429.803 1104.26 429.229 1103.69 428.804 1103.01C428.391 1102.31 428.184 1101.48 428.184 1100.51C428.184 1099.26 428.552 1098.2 429.287 1097.34C430.035 1096.46 431.042 1095.8 432.306 1095.34C433.57 1094.88 434.976 1094.65 436.524 1094.65C438.02 1094.65 439.4 1094.89 440.664 1095.36C441.929 1095.84 442.941 1096.54 443.702 1097.45C444.476 1098.36 444.863 1099.47 444.863 1100.8C444.863 1100.85 444.863 1100.92 444.863 1100.99C444.863 1101.06 444.863 1101.12 444.863 1101.19H441.574C441.574 1101.12 441.574 1101.07 441.574 1101.03C441.574 1100.99 441.574 1100.95 441.574 1100.9C441.574 1100.15 441.335 1099.54 440.858 1099.06C440.381 1098.57 439.761 1098.21 439 1097.98C438.239 1097.73 437.427 1097.61 436.562 1097.61C435.75 1097.61 434.95 1097.7 434.163 1097.88C433.376 1098.05 432.725 1098.33 432.209 1098.73C431.693 1099.13 431.435 1099.68 431.435 1100.37C431.435 1101.07 431.674 1101.63 432.151 1102.06C432.641 1102.47 433.325 1102.81 434.202 1103.08C435.092 1103.34 436.137 1103.58 437.336 1103.8C438.407 1103.99 439.42 1104.24 440.374 1104.53C441.329 1104.82 442.167 1105.19 442.89 1105.64C443.625 1106.09 444.199 1106.66 444.612 1107.36C445.037 1108.04 445.25 1108.88 445.25 1109.87C445.25 1110.88 445.018 1111.76 444.554 1112.51C444.102 1113.25 443.47 1113.88 442.657 1114.38C441.858 1114.89 440.929 1115.26 439.871 1115.51C438.826 1115.76 437.711 1115.89 436.524 1115.89ZM456.91 1115.81C456.278 1115.81 455.659 1115.74 455.053 1115.6C454.446 1115.46 453.898 1115.21 453.408 1114.85C452.931 1114.47 452.55 1113.95 452.266 1113.28C451.983 1112.6 451.841 1111.72 451.841 1110.65C451.841 1110.38 451.841 1110.1 451.841 1109.82C451.841 1109.52 451.841 1109.21 451.841 1108.89V1097.86H446.829V1094.96H450.041C450.48 1094.96 450.822 1094.94 451.067 1094.92C451.312 1094.88 451.486 1094.8 451.589 1094.67C451.705 1094.52 451.776 1094.31 451.802 1094.03C451.828 1093.73 451.841 1093.32 451.841 1092.81V1088.15H455.149V1094.96H461.573V1097.86H455.149V1107.82C455.149 1108.11 455.149 1108.38 455.149 1108.66C455.149 1108.93 455.149 1109.18 455.149 1109.41C455.149 1110.51 455.278 1111.36 455.536 1111.98C455.807 1112.6 456.407 1112.91 457.336 1112.91C457.71 1112.91 458.065 1112.88 458.4 1112.82C458.735 1112.75 458.987 1112.69 459.155 1112.62V1115.49C458.935 1115.56 458.626 1115.63 458.226 1115.7C457.839 1115.78 457.4 1115.81 456.91 1115.81ZM465.248 1124.17C464.732 1124.17 464.261 1124.14 463.835 1124.08C463.41 1124.03 463.145 1123.97 463.042 1123.92V1121.06C463.21 1121.14 463.487 1121.2 463.874 1121.25C464.261 1121.3 464.648 1121.33 465.035 1121.33C465.86 1121.33 466.557 1121.16 467.125 1120.81C467.692 1120.47 468.169 1120.01 468.556 1119.41C468.943 1118.83 469.259 1118.18 469.504 1117.44L470.124 1115.62L463.042 1094.96H466.486L472.175 1112.66H471.71L477.283 1094.96H480.669L473.142 1117.27C472.716 1118.52 472.2 1119.67 471.594 1120.71C471.001 1121.76 470.201 1122.59 469.195 1123.23C468.202 1123.86 466.886 1124.17 465.248 1124.17ZM225.906 1163.89C223.778 1163.89 221.843 1163.31 220.101 1162.15C218.36 1160.99 216.973 1159.32 215.941 1157.14C214.909 1154.96 214.393 1152.33 214.393 1149.26C214.393 1146.19 214.916 1143.57 215.961 1141.39C217.005 1139.21 218.418 1137.54 220.198 1136.38C221.991 1135.2 223.997 1134.62 226.216 1134.62C228.022 1134.62 229.55 1134.93 230.801 1135.57C232.065 1136.18 233.091 1136.99 233.878 1137.98C234.678 1138.96 235.258 1140.01 235.619 1141.12C235.98 1142.21 236.161 1143.25 236.161 1144.21C236.161 1144.25 236.161 1144.29 236.161 1144.33C236.161 1144.37 236.161 1144.41 236.161 1144.45H232.949C232.949 1144.41 232.949 1144.37 232.949 1144.33C232.949 1144.29 232.949 1144.25 232.949 1144.21C232.949 1143.44 232.814 1142.67 232.543 1141.89C232.285 1141.11 231.878 1140.4 231.324 1139.76C230.769 1139.12 230.066 1138.6 229.215 1138.22C228.376 1137.83 227.377 1137.64 226.216 1137.64C224.655 1137.64 223.229 1138.06 221.939 1138.91C220.662 1139.76 219.637 1141.05 218.863 1142.78C218.102 1144.5 217.721 1146.66 217.721 1149.26C217.721 1151.26 217.934 1153 218.36 1154.47C218.786 1155.93 219.372 1157.13 220.121 1158.09C220.869 1159.04 221.74 1159.75 222.733 1160.22C223.739 1160.68 224.822 1160.91 225.983 1160.91C227.518 1160.91 228.776 1160.65 229.756 1160.12C230.75 1159.59 231.517 1158.93 232.059 1158.15C232.601 1157.35 232.949 1156.56 233.104 1155.79V1152.79H226.119V1150.02H236.084V1163.51H233.626L233.452 1160.33C233.349 1160.53 233.136 1160.82 232.814 1161.2C232.491 1161.59 232.033 1161.99 231.44 1162.4C230.859 1162.82 230.111 1163.17 229.195 1163.47C228.279 1163.75 227.183 1163.89 225.906 1163.89ZM241.756 1154.55V1151.61H257.642L257.062 1152.57C257.062 1152.5 257.062 1152.42 257.062 1152.36C257.062 1152.28 257.062 1152.21 257.062 1152.15C257.062 1150.96 256.81 1149.88 256.307 1148.9C255.817 1147.9 255.082 1147.11 254.101 1146.52C253.121 1145.92 251.908 1145.63 250.464 1145.63C249.006 1145.63 247.722 1145.94 246.613 1146.56C245.504 1147.17 244.639 1148.05 244.02 1149.19C243.401 1150.31 243.092 1151.65 243.092 1153.21C243.092 1154.8 243.388 1156.17 243.982 1157.31C244.588 1158.46 245.446 1159.35 246.555 1159.96C247.664 1160.58 248.98 1160.89 250.502 1160.89C251.586 1160.89 252.527 1160.78 253.327 1160.56C254.127 1160.33 254.785 1160.03 255.301 1159.65C255.83 1159.27 256.23 1158.85 256.5 1158.4C256.771 1157.95 256.933 1157.49 256.984 1157.04H260.274C260.209 1157.87 259.951 1158.69 259.5 1159.5C259.048 1160.31 258.41 1161.05 257.584 1161.73C256.758 1162.38 255.746 1162.91 254.546 1163.31C253.347 1163.71 251.966 1163.91 250.405 1163.91C248.342 1163.91 246.523 1163.46 244.949 1162.56C243.375 1161.65 242.137 1160.4 241.234 1158.8C240.344 1157.2 239.899 1155.37 239.899 1153.29C239.899 1151.19 240.35 1149.34 241.253 1147.76C242.156 1146.16 243.401 1144.9 244.988 1144C246.574 1143.1 248.387 1142.65 250.425 1142.65C252.502 1142.65 254.301 1143.1 255.823 1144C257.345 1144.9 258.519 1146.14 259.345 1147.72C260.17 1149.28 260.583 1151.06 260.583 1153.06C260.583 1153.26 260.577 1153.53 260.564 1153.87C260.551 1154.2 260.531 1154.43 260.506 1154.55H241.756ZM279.254 1163.51V1153.66C279.254 1153.06 279.254 1152.58 279.254 1152.21C279.254 1151.82 279.254 1151.45 279.254 1151.1C279.254 1150.03 279.074 1149.1 278.713 1148.3C278.351 1147.5 277.784 1146.88 277.01 1146.44C276.236 1146 275.223 1145.78 273.972 1145.78C272.876 1145.78 271.857 1146.07 270.915 1146.63C269.986 1147.19 269.238 1147.94 268.67 1148.9C268.116 1149.84 267.838 1150.9 267.838 1152.07L265.962 1151.35C265.962 1149.74 266.355 1148.28 267.142 1146.96C267.942 1145.65 268.999 1144.6 270.315 1143.83C271.644 1143.04 273.088 1142.65 274.649 1142.65C276.236 1142.65 277.623 1142.95 278.809 1143.56C279.996 1144.16 280.912 1145.03 281.557 1146.17C282.215 1147.29 282.544 1148.65 282.544 1150.23C282.544 1150.8 282.544 1151.42 282.544 1152.09C282.544 1152.76 282.544 1153.39 282.544 1153.97V1163.51H279.254ZM264.549 1163.51V1142.96H267.838V1163.51H264.549ZM288.185 1154.55V1151.61H304.071L303.49 1152.57C303.49 1152.5 303.49 1152.42 303.49 1152.36C303.49 1152.28 303.49 1152.21 303.49 1152.15C303.49 1150.96 303.239 1149.88 302.736 1148.9C302.245 1147.9 301.51 1147.11 300.53 1146.52C299.549 1145.92 298.337 1145.63 296.892 1145.63C295.435 1145.63 294.151 1145.94 293.042 1146.56C291.932 1147.17 291.068 1148.05 290.449 1149.19C289.83 1150.31 289.52 1151.65 289.52 1153.21C289.52 1154.8 289.817 1156.17 290.41 1157.31C291.016 1158.46 291.874 1159.35 292.984 1159.96C294.093 1160.58 295.409 1160.89 296.931 1160.89C298.014 1160.89 298.956 1160.78 299.756 1160.56C300.556 1160.33 301.213 1160.03 301.729 1159.65C302.258 1159.27 302.658 1158.85 302.929 1158.4C303.2 1157.95 303.361 1157.49 303.413 1157.04H306.702C306.638 1157.87 306.38 1158.69 305.928 1159.5C305.477 1160.31 304.838 1161.05 304.013 1161.73C303.187 1162.38 302.174 1162.91 300.975 1163.31C299.775 1163.71 298.395 1163.91 296.834 1163.91C294.77 1163.91 292.951 1163.46 291.378 1162.56C289.804 1161.65 288.566 1160.4 287.663 1158.8C286.773 1157.2 286.328 1155.37 286.328 1153.29C286.328 1151.19 286.779 1149.34 287.682 1147.76C288.585 1146.16 289.83 1144.9 291.416 1144C293.003 1143.1 294.815 1142.65 296.853 1142.65C298.93 1142.65 300.73 1143.1 302.252 1144C303.774 1144.9 304.948 1146.14 305.773 1147.72C306.599 1149.28 307.012 1151.06 307.012 1153.06C307.012 1153.26 307.005 1153.53 306.992 1153.87C306.979 1154.2 306.96 1154.43 306.934 1154.55H288.185ZM310.978 1163.51V1142.96H314.267V1149.26L313.183 1148.88C313.261 1148.12 313.454 1147.37 313.764 1146.63C314.073 1145.88 314.499 1145.21 315.041 1144.62C315.596 1144.01 316.286 1143.54 317.111 1143.19C317.937 1142.83 318.904 1142.65 320.014 1142.65C320.839 1142.65 321.51 1142.72 322.026 1142.86C322.555 1142.99 322.884 1143.09 323.013 1143.17L322.161 1146.4C322.032 1146.31 321.768 1146.19 321.368 1146.05C320.981 1145.91 320.426 1145.84 319.704 1145.84C318.633 1145.84 317.743 1146.03 317.034 1146.42C316.337 1146.81 315.783 1147.32 315.37 1147.97C314.97 1148.6 314.686 1149.29 314.518 1150.04C314.351 1150.79 314.267 1151.53 314.267 1152.26V1163.51H310.978ZM332.187 1163.89C330.626 1163.89 329.259 1163.65 328.085 1163.16C326.924 1162.67 326.021 1161.96 325.376 1161.05C324.731 1160.12 324.409 1159.01 324.409 1157.72C324.409 1156.38 324.757 1155.26 325.454 1154.37C326.15 1153.47 327.131 1152.77 328.395 1152.26C329.659 1151.76 331.129 1151.43 332.806 1151.26C335.335 1151 337.134 1150.75 338.205 1150.5C339.275 1150.24 339.811 1149.83 339.811 1149.26C339.811 1149.25 339.811 1149.25 339.811 1149.25C339.811 1149.23 339.811 1149.22 339.811 1149.21C339.811 1148.02 339.327 1147.14 338.36 1146.56C337.392 1145.96 335.992 1145.67 334.161 1145.67C332.252 1145.67 330.768 1146 329.71 1146.67C328.653 1147.33 328.124 1148.4 328.124 1149.88H324.873C324.873 1148.35 325.267 1147.05 326.054 1145.98C326.84 1144.89 327.93 1144.07 329.324 1143.5C330.73 1142.93 332.348 1142.65 334.18 1142.65C335.857 1142.65 337.366 1142.91 338.708 1143.42C340.062 1143.92 341.133 1144.68 341.92 1145.68C342.719 1146.68 343.119 1147.91 343.119 1149.38C343.119 1149.65 343.119 1149.92 343.119 1150.19C343.119 1150.45 343.119 1150.72 343.119 1150.99V1159.64C343.119 1160.09 343.139 1160.53 343.177 1160.95C343.216 1161.38 343.281 1161.75 343.371 1162.07C343.487 1162.46 343.616 1162.78 343.758 1163.02C343.9 1163.25 344.016 1163.42 344.106 1163.51H340.797C340.733 1163.44 340.636 1163.29 340.507 1163.06C340.378 1162.82 340.256 1162.53 340.14 1162.21C340.049 1161.95 339.978 1161.63 339.927 1161.24C339.875 1160.84 339.849 1160.43 339.849 1160L340.391 1160.37C339.991 1161.07 339.404 1161.68 338.63 1162.21C337.869 1162.74 336.947 1163.15 335.863 1163.45C334.78 1163.74 333.554 1163.89 332.187 1163.89ZM332.71 1160.93C334.038 1160.93 335.238 1160.73 336.309 1160.33C337.379 1159.92 338.231 1159.31 338.863 1158.51C339.495 1157.71 339.811 1156.72 339.811 1155.53V1151.45L340.546 1152.69C339.72 1153.01 338.688 1153.28 337.45 1153.48C336.225 1153.68 334.941 1153.84 333.6 1153.97C331.652 1154.15 330.181 1154.49 329.188 1154.99C328.208 1155.49 327.718 1156.34 327.718 1157.53C327.718 1158.65 328.124 1159.5 328.937 1160.08C329.749 1160.65 331.007 1160.93 332.71 1160.93ZM350.97 1133.26V1163.51H347.72V1133.26H350.97ZM356.023 1163.51V1142.96H359.274V1163.51H356.023ZM357.668 1138.24C357.061 1138.24 356.533 1138.07 356.081 1137.73C355.643 1137.38 355.423 1136.91 355.423 1136.32C355.423 1135.74 355.643 1135.28 356.081 1134.95C356.533 1134.6 357.061 1134.42 357.668 1134.42C358.274 1134.42 358.796 1134.6 359.235 1134.95C359.674 1135.28 359.893 1135.74 359.893 1136.32C359.893 1136.91 359.674 1137.38 359.235 1137.73C358.796 1138.07 358.274 1138.24 357.668 1138.24ZM366.397 1160.49H378.587V1163.51H362.721V1160.6L374.775 1145.9L374.794 1145.98H363.204V1142.96H378.413V1145.86L366.416 1160.53L366.397 1160.49ZM388.236 1163.89C386.675 1163.89 385.308 1163.65 384.134 1163.16C382.973 1162.67 382.07 1161.96 381.425 1161.05C380.78 1160.12 380.458 1159.01 380.458 1157.72C380.458 1156.38 380.806 1155.26 381.502 1154.37C382.199 1153.47 383.179 1152.77 384.443 1152.26C385.708 1151.76 387.178 1151.43 388.855 1151.26C391.383 1151 393.183 1150.75 394.253 1150.5C395.324 1150.24 395.859 1149.83 395.859 1149.26C395.859 1149.25 395.859 1149.25 395.859 1149.25C395.859 1149.23 395.859 1149.22 395.859 1149.21C395.859 1148.02 395.376 1147.14 394.408 1146.56C393.441 1145.96 392.041 1145.67 390.209 1145.67C388.3 1145.67 386.817 1146 385.759 1146.67C384.701 1147.33 384.173 1148.4 384.173 1149.88H380.922C380.922 1148.35 381.315 1147.05 382.102 1145.98C382.889 1144.89 383.979 1144.07 385.372 1143.5C386.778 1142.93 388.397 1142.65 390.229 1142.65C391.906 1142.65 393.415 1142.91 394.756 1143.42C396.111 1143.92 397.182 1144.68 397.968 1145.68C398.768 1146.68 399.168 1147.91 399.168 1149.38C399.168 1149.65 399.168 1149.92 399.168 1150.19C399.168 1150.45 399.168 1150.72 399.168 1150.99V1159.64C399.168 1160.09 399.187 1160.53 399.226 1160.95C399.265 1161.38 399.329 1161.75 399.42 1162.07C399.536 1162.46 399.665 1162.78 399.807 1163.02C399.948 1163.25 400.065 1163.42 400.155 1163.51H396.846C396.782 1163.44 396.685 1163.29 396.556 1163.06C396.427 1162.82 396.304 1162.53 396.188 1162.21C396.098 1161.95 396.027 1161.63 395.975 1161.24C395.924 1160.84 395.898 1160.43 395.898 1160L396.44 1160.37C396.04 1161.07 395.453 1161.68 394.679 1162.21C393.918 1162.74 392.996 1163.15 391.912 1163.45C390.829 1163.74 389.603 1163.89 388.236 1163.89ZM388.758 1160.93C390.087 1160.93 391.287 1160.73 392.357 1160.33C393.428 1159.92 394.279 1159.31 394.911 1158.51C395.543 1157.71 395.859 1156.72 395.859 1155.53V1151.45L396.595 1152.69C395.769 1153.01 394.737 1153.28 393.499 1153.48C392.273 1153.68 390.99 1153.84 389.648 1153.97C387.701 1154.15 386.23 1154.49 385.237 1154.99C384.256 1155.49 383.766 1156.34 383.766 1157.53C383.766 1158.65 384.173 1159.5 384.985 1160.08C385.798 1160.65 387.056 1160.93 388.758 1160.93ZM411.038 1163.81C410.406 1163.81 409.787 1163.74 409.18 1163.6C408.574 1163.46 408.026 1163.21 407.536 1162.85C407.058 1162.47 406.678 1161.95 406.394 1161.28C406.11 1160.6 405.968 1159.72 405.968 1158.65C405.968 1158.38 405.968 1158.1 405.968 1157.82C405.968 1157.52 405.968 1157.21 405.968 1156.89V1145.86H400.957V1142.96H404.169C404.607 1142.96 404.949 1142.94 405.194 1142.92C405.439 1142.88 405.614 1142.8 405.717 1142.67C405.833 1142.52 405.904 1142.31 405.93 1142.03C405.955 1141.73 405.968 1141.32 405.968 1140.81V1136.15H409.277V1142.96H415.701V1145.86H409.277V1155.82C409.277 1156.11 409.277 1156.38 409.277 1156.66C409.277 1156.93 409.277 1157.18 409.277 1157.41C409.277 1158.51 409.406 1159.36 409.664 1159.98C409.935 1160.6 410.535 1160.91 411.463 1160.91C411.838 1160.91 412.192 1160.88 412.528 1160.82C412.863 1160.75 413.115 1160.69 413.282 1160.62V1163.49C413.063 1163.56 412.753 1163.63 412.354 1163.7C411.967 1163.78 411.528 1163.81 411.038 1163.81ZM418.95 1163.51V1142.96H422.2V1163.51H418.95ZM420.594 1138.24C419.988 1138.24 419.459 1138.07 419.008 1137.73C418.569 1137.38 418.35 1136.91 418.35 1136.32C418.35 1135.74 418.569 1135.28 419.008 1134.95C419.459 1134.6 419.988 1134.42 420.594 1134.42C421.201 1134.42 421.723 1134.6 422.162 1134.95C422.6 1135.28 422.82 1135.74 422.82 1136.32C422.82 1136.91 422.6 1137.38 422.162 1137.73C421.723 1138.07 421.201 1138.24 420.594 1138.24ZM436.889 1163.87C434.825 1163.87 433 1163.42 431.413 1162.5C429.839 1161.57 428.601 1160.31 427.698 1158.71C426.808 1157.09 426.363 1155.26 426.363 1153.21C426.363 1151.16 426.808 1149.34 427.698 1147.76C428.601 1146.17 429.839 1144.92 431.413 1144.02C433 1143.12 434.825 1142.67 436.889 1142.67C438.953 1142.67 440.772 1143.12 442.345 1144.02C443.932 1144.92 445.17 1146.17 446.06 1147.76C446.963 1149.34 447.415 1151.16 447.415 1153.21C447.415 1155.26 446.963 1157.09 446.06 1158.71C445.17 1160.31 443.932 1161.57 442.345 1162.5C440.772 1163.42 438.953 1163.87 436.889 1163.87ZM436.889 1160.85C438.308 1160.85 439.559 1160.54 440.643 1159.91C441.726 1159.27 442.571 1158.38 443.177 1157.24C443.797 1156.09 444.106 1154.75 444.106 1153.21C444.106 1151.68 443.797 1150.35 443.177 1149.23C442.571 1148.09 441.726 1147.22 440.643 1146.61C439.559 1145.99 438.308 1145.68 436.889 1145.68C435.483 1145.68 434.232 1145.99 433.135 1146.61C432.052 1147.22 431.2 1148.09 430.581 1149.23C429.975 1150.35 429.672 1151.68 429.672 1153.21C429.672 1154.75 429.975 1156.09 430.581 1157.24C431.2 1158.38 432.052 1159.27 433.135 1159.91C434.232 1160.54 435.483 1160.85 436.889 1160.85ZM466.096 1163.51V1153.66C466.096 1153.06 466.096 1152.58 466.096 1152.21C466.096 1151.82 466.096 1151.45 466.096 1151.1C466.096 1150.03 465.916 1149.1 465.555 1148.3C465.193 1147.5 464.626 1146.88 463.852 1146.44C463.078 1146 462.065 1145.78 460.814 1145.78C459.718 1145.78 458.699 1146.07 457.757 1146.63C456.828 1147.19 456.08 1147.94 455.512 1148.9C454.958 1149.84 454.68 1150.9 454.68 1152.07L452.804 1151.35C452.804 1149.74 453.197 1148.28 453.984 1146.96C454.784 1145.65 455.841 1144.6 457.157 1143.83C458.486 1143.04 459.93 1142.65 461.491 1142.65C463.078 1142.65 464.465 1142.95 465.651 1143.56C466.838 1144.16 467.754 1145.03 468.399 1146.17C469.057 1147.29 469.386 1148.65 469.386 1150.23C469.386 1150.8 469.386 1151.42 469.386 1152.09C469.386 1152.76 469.386 1153.39 469.386 1153.97V1163.51H466.096ZM451.391 1163.51V1142.96H454.68V1163.51H451.391Z" fill="white"/>
<path d="M332.165 989.416C341.755 977.228 349.622 964.019 355.863 949.821C356.329 948.768 357.546 947.714 358.649 947.33C363.133 945.745 367.7 944.43 372.92 942.796C372.446 945.181 372.34 947.175 371.645 948.931C367.912 958.333 364.073 967.695 360.143 977.024C359.67 978.143 358.322 978.853 357.636 979.924C356.615 981.533 355.234 983.224 355.046 984.997C354.613 989.154 353.028 990.347 349.32 988.574C349.017 988.436 348.732 988.264 348.438 988.109C342.414 984.836 337.17 985.438 332.704 989.914C332.525 989.751 332.345 989.579 332.173 989.416H332.165Z" fill="white"/>
<path d="M342.875 988.076C522.989 988.076 669 919.933 669 835.874C669 751.815 522.989 683.672 342.875 683.672C162.76 683.672 16.749 751.815 16.749 835.874C16.749 919.933 162.76 988.076 342.875 988.076Z" fill="#F4F4F4" stroke="#FF4C91" stroke-width="24.0424" stroke-miterlimit="10"/>
<path d="M342.875 939.594C465.611 939.594 565.109 893.157 565.109 835.874C565.109 778.591 465.611 732.154 342.875 732.154C220.138 732.154 120.641 778.591 120.641 835.874C120.641 893.157 220.138 939.594 342.875 939.594Z" fill="#F4F4F4" stroke="#FF4C91" stroke-width="1.98452" stroke-miterlimit="10"/>
<path d="M342.874 900.187C418.979 900.187 480.675 871.393 480.675 835.874C480.675 800.355 418.979 771.561 342.874 771.561C266.769 771.561 205.074 800.355 205.074 835.874C205.074 871.393 266.769 900.187 342.874 900.187Z" fill="#F4F4F4" stroke="#FF4C91" stroke-width="1.98452" stroke-miterlimit="10"/>
<path d="M342.874 683.68V988.076" stroke="#FF4C91" stroke-width="1.98452" stroke-miterlimit="10"/>
<path d="M669 835.882H16.749" stroke="#FF4C91" stroke-width="1.98452" stroke-miterlimit="10"/>
<path d="M342.874 873.843C387.805 873.843 424.228 856.844 424.228 835.874C424.228 814.904 387.805 797.905 342.874 797.905C297.944 797.905 261.521 814.904 261.521 835.874C261.521 856.844 297.944 873.843 342.874 873.843Z" fill="#4857F6" stroke="#FF4C91" stroke-width="1.98452" stroke-miterlimit="10"/>
<path d="M120.641 625.567V788.715L234.67 706.095L120.641 625.567Z" fill="#FF4C91"/>
<path d="M216.102 621.09V784.239L330.139 701.619L216.102 621.09Z" fill="#FF4C91"/>
<path d="M435.395 879.724V1042.87L549.432 960.253L435.395 879.724Z" fill="#FF4C91"/>
<path d="M530.856 875.248V1038.4L644.893 955.777L530.856 875.248Z" fill="#FF4C91"/>
<path d="M643.636 843.553C644.02 843.553 644.346 843.52 644.616 843.447C644.885 843.373 645.106 843.283 645.278 843.153C645.449 843.022 645.572 842.875 645.653 842.695C645.735 842.515 645.768 842.311 645.768 842.091C645.768 841.772 645.678 841.527 645.506 841.347C645.335 841.168 645.049 841.069 644.657 841.069C644.444 841.069 644.256 841.094 644.085 841.135C643.913 841.176 643.758 841.233 643.619 841.298C643.48 841.364 643.35 841.437 643.235 841.519C643.121 841.6 643.015 841.674 642.917 841.739L642.263 840.686C642.386 840.588 642.541 840.49 642.713 840.4C642.884 840.31 643.072 840.22 643.284 840.146C643.497 840.073 643.709 840.016 643.946 839.967C644.183 839.918 644.428 839.901 644.689 839.901C645.057 839.901 645.408 839.942 645.727 840.024C646.045 840.106 646.331 840.228 646.576 840.391C646.822 840.555 647.009 840.767 647.148 841.02C647.287 841.274 647.361 841.584 647.361 841.935C647.361 842.172 647.312 842.393 647.222 842.605C647.132 842.818 647.009 843.006 646.862 843.177C646.715 843.349 646.552 843.496 646.364 843.618C646.176 843.741 645.988 843.831 645.792 843.888C646.095 843.929 646.364 844.002 646.601 844.108C646.838 844.215 647.042 844.353 647.206 844.533C647.369 844.713 647.491 844.917 647.581 845.17C647.671 845.423 647.712 845.709 647.712 846.028C647.712 846.543 647.63 846.976 647.475 847.335C647.32 847.694 647.099 847.98 646.813 848.201C646.528 848.421 646.201 848.585 645.817 848.683C645.433 848.781 645.016 848.83 644.567 848.83C644.281 848.83 644.011 848.797 643.75 848.74C643.489 848.683 643.244 848.609 643.023 848.528C642.802 848.446 642.606 848.364 642.443 848.274C642.28 848.185 642.149 848.119 642.059 848.062L642.77 846.886C642.77 846.886 642.852 846.943 642.917 846.992C642.982 847.041 643.072 847.09 643.17 847.147C643.268 847.204 643.374 847.261 643.497 847.319C643.619 847.376 643.742 847.433 643.873 847.482C644.003 847.531 644.134 847.572 644.273 847.605C644.412 847.637 644.542 847.654 644.673 847.654C645.106 847.654 645.449 847.523 645.702 847.27C645.956 847.016 646.086 846.633 646.086 846.126C646.086 845.807 646.037 845.546 645.947 845.334C645.858 845.121 645.711 844.958 645.514 844.843C645.318 844.729 645.057 844.639 644.747 844.59C644.436 844.541 644.06 844.517 643.619 844.509L643.636 843.545V843.553Z" fill="#FF4C91"/>
<path d="M347.776 701.856C348.16 701.856 348.486 701.823 348.756 701.749C349.026 701.676 349.246 701.586 349.418 701.455C349.589 701.325 349.712 701.178 349.793 700.998C349.875 700.818 349.908 700.614 349.908 700.393C349.908 700.075 349.818 699.83 349.646 699.65C349.475 699.47 349.189 699.372 348.797 699.372C348.584 699.372 348.397 699.397 348.225 699.438C348.054 699.478 347.898 699.536 347.759 699.601C347.621 699.666 347.49 699.74 347.375 699.822C347.261 699.903 347.155 699.977 347.057 700.042L346.403 698.988C346.526 698.89 346.681 698.792 346.853 698.702C347.024 698.613 347.212 698.523 347.425 698.449C347.637 698.376 347.849 698.319 348.086 698.27C348.323 698.221 348.568 698.204 348.83 698.204C349.197 698.204 349.548 698.245 349.867 698.327C350.186 698.408 350.471 698.531 350.716 698.694C350.961 698.858 351.15 699.07 351.288 699.323C351.427 699.576 351.501 699.887 351.501 700.238C351.501 700.475 351.452 700.696 351.362 700.908C351.272 701.12 351.149 701.308 351.002 701.48C350.855 701.651 350.692 701.798 350.504 701.921C350.316 702.044 350.128 702.133 349.932 702.191C350.234 702.231 350.504 702.305 350.741 702.411C350.978 702.517 351.182 702.656 351.345 702.836C351.509 703.016 351.631 703.22 351.721 703.473C351.811 703.726 351.852 704.012 351.852 704.331C351.852 704.845 351.77 705.278 351.615 705.638C351.46 705.997 351.239 706.283 350.953 706.504C350.667 706.724 350.341 706.888 349.957 706.986C349.573 707.084 349.156 707.133 348.707 707.133C348.421 707.133 348.151 707.1 347.89 707.043C347.629 706.986 347.384 706.912 347.163 706.83C346.943 706.749 346.747 706.667 346.583 706.577C346.42 706.487 346.289 706.422 346.199 706.365L346.91 705.189C346.91 705.189 346.991 705.246 347.057 705.295C347.122 705.344 347.212 705.393 347.31 705.45C347.408 705.507 347.514 705.564 347.637 705.621C347.759 705.679 347.882 705.736 348.013 705.785C348.143 705.834 348.274 705.875 348.413 705.907C348.552 705.94 348.683 705.956 348.813 705.956C349.246 705.956 349.589 705.826 349.843 705.572C350.096 705.319 350.226 704.935 350.226 704.429C350.226 704.11 350.177 703.849 350.087 703.636C349.998 703.424 349.851 703.261 349.655 703.146C349.459 703.032 349.197 702.942 348.887 702.893C348.576 702.844 348.201 702.82 347.759 702.811L347.776 701.847V701.856Z" fill="#FF4C91"/>
<path d="M461.601 847.58V841.592L460.22 842.344V841.094L461.985 840.13H463.087V847.58H464.313V848.691H460.269V847.58H461.601Z" fill="#FF4C91"/>
<path d="M465.408 844.378C465.408 843.7 465.465 843.087 465.587 842.54C465.71 841.993 465.89 841.519 466.135 841.127C466.38 840.735 466.69 840.432 467.074 840.22C467.458 840.008 467.899 839.901 468.414 839.901C468.928 839.901 469.353 840.008 469.729 840.212C470.105 840.416 470.407 840.718 470.652 841.102C470.897 841.486 471.077 841.96 471.191 842.515C471.305 843.071 471.371 843.692 471.371 844.386C471.371 845.08 471.314 845.726 471.199 846.281C471.085 846.837 470.905 847.302 470.66 847.678C470.415 848.054 470.105 848.348 469.729 848.544C469.353 848.74 468.904 848.838 468.389 848.838C467.875 848.838 467.434 848.74 467.058 848.544C466.682 848.348 466.372 848.062 466.135 847.678C465.898 847.294 465.71 846.837 465.596 846.281C465.481 845.726 465.424 845.097 465.424 844.386L465.408 844.378ZM468.397 847.654C468.61 847.654 468.79 847.613 468.937 847.523C469.084 847.433 469.214 847.311 469.312 847.155C469.41 847 469.5 846.812 469.557 846.592C469.615 846.371 469.664 846.142 469.696 845.897C469.729 845.652 469.753 845.391 469.762 845.121C469.77 844.852 469.778 844.582 469.778 844.304C469.778 844.051 469.778 843.798 469.77 843.536C469.762 843.275 469.745 843.03 469.713 842.793C469.68 842.556 469.639 842.327 469.582 842.123C469.525 841.919 469.443 841.731 469.345 841.576C469.247 841.421 469.116 841.298 468.969 841.208C468.822 841.119 468.634 841.078 468.422 841.078C468.21 841.078 468.014 841.119 467.858 841.208C467.703 841.298 467.572 841.413 467.466 841.568C467.36 841.723 467.278 841.903 467.213 842.107C467.148 842.311 467.099 842.54 467.066 842.785C467.033 843.03 467.009 843.283 467.001 843.553C466.992 843.822 466.984 844.084 466.984 844.353C466.984 844.623 466.984 844.884 467.001 845.154C467.017 845.423 467.033 845.677 467.066 845.922C467.099 846.167 467.148 846.396 467.213 846.608C467.278 846.82 467.36 847 467.458 847.155C467.556 847.311 467.687 847.433 467.842 847.523C467.997 847.613 468.177 847.654 468.389 847.654H468.397Z" fill="#FF4C91"/>
<path d="M348.364 784.647V778.659L346.984 779.411V778.161L348.748 777.197H349.851V784.647H351.076V785.758H347.033V784.647H348.364Z" fill="#FF4C91"/>
<path d="M352.171 781.445C352.171 780.767 352.228 780.154 352.351 779.607C352.473 779.059 352.653 778.586 352.898 778.194C353.143 777.801 353.453 777.499 353.837 777.287C354.221 777.074 354.663 776.968 355.177 776.968C355.692 776.968 356.116 777.074 356.492 777.279C356.868 777.483 357.17 777.785 357.415 778.169C357.661 778.553 357.84 779.027 357.955 779.582C358.069 780.138 358.134 780.759 358.134 781.453C358.134 782.147 358.077 782.793 357.963 783.348C357.848 783.904 357.669 784.369 357.424 784.745C357.179 785.121 356.868 785.415 356.492 785.611C356.116 785.807 355.667 785.905 355.153 785.905C354.638 785.905 354.197 785.807 353.821 785.611C353.445 785.415 353.135 785.129 352.898 784.745C352.661 784.361 352.473 783.904 352.359 783.348C352.244 782.793 352.187 782.164 352.187 781.453L352.171 781.445ZM355.161 784.721C355.373 784.721 355.553 784.68 355.7 784.59C355.847 784.5 355.978 784.377 356.076 784.222C356.174 784.067 356.264 783.879 356.321 783.659C356.378 783.438 356.427 783.209 356.46 782.964C356.492 782.719 356.517 782.458 356.525 782.188C356.533 781.919 356.541 781.649 356.541 781.371C356.541 781.118 356.541 780.865 356.533 780.603C356.525 780.342 356.509 780.097 356.476 779.86C356.443 779.623 356.402 779.394 356.345 779.19C356.288 778.986 356.206 778.798 356.108 778.643C356.01 778.488 355.88 778.365 355.733 778.275C355.586 778.185 355.398 778.145 355.185 778.145C354.973 778.145 354.777 778.185 354.622 778.275C354.466 778.365 354.336 778.48 354.229 778.635C354.123 778.79 354.042 778.97 353.976 779.174C353.911 779.378 353.862 779.607 353.829 779.852C353.797 780.097 353.772 780.35 353.764 780.62C353.756 780.889 353.748 781.151 353.748 781.42C353.748 781.69 353.747 781.951 353.764 782.221C353.78 782.49 353.797 782.744 353.829 782.989C353.862 783.234 353.911 783.462 353.976 783.675C354.042 783.887 354.123 784.067 354.221 784.222C354.319 784.377 354.45 784.5 354.605 784.59C354.76 784.68 354.94 784.721 355.153 784.721H355.161Z" fill="#FF4C91"/>
<path d="M556.474 841.698C556.294 841.6 556.082 841.51 555.845 841.429C555.608 841.347 555.33 841.314 555.028 841.314C554.75 841.314 554.505 841.372 554.293 841.494C554.081 841.617 553.901 841.78 553.746 841.992C553.59 842.205 553.468 842.474 553.37 842.785C553.272 843.095 553.206 843.438 553.157 843.83C553.247 843.741 553.362 843.659 553.492 843.585C553.623 843.512 553.77 843.447 553.917 843.398C554.064 843.349 554.228 843.308 554.391 843.275C554.554 843.242 554.718 843.234 554.873 843.234C555.273 843.234 555.625 843.291 555.935 843.406C556.245 843.52 556.507 843.692 556.727 843.904C556.948 844.116 557.103 844.386 557.217 844.705C557.332 845.023 557.389 845.374 557.389 845.775C557.389 846.175 557.324 846.559 557.201 846.894C557.078 847.229 556.882 847.515 556.629 847.751C556.376 847.988 556.066 848.176 555.682 848.307C555.298 848.438 554.865 848.503 554.366 848.503C553.909 848.503 553.517 848.43 553.182 848.282C552.847 848.135 552.577 847.915 552.357 847.629C552.136 847.343 551.981 846.984 551.875 846.551C551.769 846.118 551.72 845.619 551.72 845.056C551.72 844.288 551.785 843.602 551.908 842.997C552.03 842.393 552.234 841.894 552.512 841.486C552.79 841.078 553.149 840.767 553.582 840.555C554.015 840.342 554.562 840.236 555.191 840.236C555.322 840.236 555.469 840.244 555.624 840.261C555.78 840.277 555.935 840.301 556.09 840.342C556.245 840.383 556.401 840.424 556.548 840.473C556.695 840.522 556.834 840.587 556.948 840.653L556.466 841.707L556.474 841.698ZM555.959 845.799C555.959 845.57 555.927 845.366 555.87 845.178C555.812 844.99 555.714 844.835 555.592 844.696C555.469 844.557 555.322 844.459 555.142 844.386C554.963 844.312 554.758 844.28 554.522 844.28C554.366 844.28 554.228 844.288 554.105 844.304C553.982 844.321 553.868 844.353 553.77 844.386C553.672 844.419 553.574 844.468 553.484 844.525C553.394 844.582 553.313 844.647 553.231 844.721C553.215 844.762 553.198 844.811 553.182 844.86C553.166 844.909 553.157 844.966 553.157 845.023C553.157 845.08 553.149 845.137 553.141 845.186C553.133 845.235 553.141 845.285 553.141 845.317C553.141 845.693 553.182 846.011 553.256 846.273C553.329 846.534 553.427 846.747 553.55 846.918C553.672 847.09 553.819 847.204 553.983 847.286C554.146 847.368 554.318 847.4 554.497 847.4C554.693 847.4 554.881 847.368 555.053 847.302C555.224 847.237 555.388 847.131 555.518 847C555.649 846.869 555.755 846.698 555.837 846.493C555.919 846.289 555.951 846.052 555.951 845.791L555.959 845.799Z" fill="#FF4C91"/>
<path d="M351.631 739.383C351.452 739.285 351.239 739.196 351.002 739.114C350.765 739.032 350.488 738.999 350.185 738.999C349.908 738.999 349.663 739.057 349.45 739.179C349.238 739.302 349.058 739.465 348.903 739.677C348.748 739.89 348.625 740.16 348.527 740.47C348.429 740.78 348.364 741.123 348.315 741.515C348.405 741.426 348.519 741.344 348.65 741.27C348.78 741.197 348.927 741.132 349.074 741.083C349.221 741.034 349.385 740.993 349.548 740.96C349.712 740.927 349.875 740.919 350.03 740.919C350.43 740.919 350.782 740.976 351.092 741.091C351.403 741.205 351.664 741.377 351.885 741.589C352.105 741.801 352.26 742.071 352.375 742.39C352.489 742.708 352.546 743.059 352.546 743.46C352.546 743.86 352.481 744.244 352.358 744.579C352.236 744.914 352.04 745.2 351.786 745.437C351.533 745.673 351.223 745.861 350.839 745.992C350.455 746.123 350.022 746.188 349.524 746.188C349.066 746.188 348.674 746.115 348.339 745.968C348.004 745.821 347.735 745.6 347.514 745.314C347.294 745.028 347.138 744.669 347.032 744.236C346.926 743.803 346.877 743.304 346.877 742.741C346.877 741.973 346.942 741.287 347.065 740.682C347.187 740.078 347.392 739.579 347.669 739.171C347.947 738.763 348.307 738.452 348.739 738.24C349.172 738.027 349.72 737.921 350.349 737.921C350.479 737.921 350.626 737.929 350.782 737.946C350.937 737.962 351.092 737.986 351.247 738.027C351.403 738.068 351.558 738.109 351.705 738.158C351.852 738.207 351.991 738.272 352.105 738.338L351.623 739.392L351.631 739.383ZM351.125 743.484C351.125 743.255 351.092 743.051 351.035 742.863C350.978 742.675 350.88 742.52 350.757 742.381C350.635 742.243 350.488 742.145 350.308 742.071C350.128 741.997 349.924 741.965 349.687 741.965C349.532 741.965 349.393 741.973 349.27 741.989C349.148 742.006 349.034 742.038 348.936 742.071C348.837 742.104 348.74 742.153 348.65 742.21C348.56 742.267 348.478 742.332 348.396 742.406C348.38 742.447 348.364 742.496 348.347 742.545C348.331 742.594 348.323 742.651 348.323 742.708C348.323 742.765 348.315 742.823 348.307 742.872C348.298 742.921 348.307 742.97 348.307 743.002C348.307 743.378 348.347 743.697 348.421 743.958C348.494 744.219 348.592 744.432 348.715 744.603C348.837 744.775 348.985 744.889 349.148 744.971C349.311 745.053 349.483 745.085 349.663 745.085C349.859 745.085 350.047 745.053 350.218 744.987C350.39 744.922 350.553 744.816 350.684 744.685C350.814 744.554 350.921 744.383 351.002 744.179C351.084 743.974 351.117 743.737 351.117 743.476L351.125 743.484Z" fill="#FF4C91"/>
<path d="M282.59 1201.77V1194.26H277.466V1191.91H282.59V1186.84H285.474V1201.77H282.59ZM279.538 1198.49L277.998 1200.76C275.282 1199.78 273.322 1197.88 272.23 1195.41C271.11 1198.21 268.982 1200.42 265.93 1201.52L264.418 1199.19C268.478 1197.82 270.69 1194.4 270.69 1190.71V1188.22H273.602V1190.57C273.602 1194.07 275.702 1197.23 279.538 1198.49ZM277.046 1209.89C280.63 1209.89 282.702 1208.96 282.702 1207.31C282.702 1205.66 280.63 1204.74 277.046 1204.74C273.462 1204.74 271.418 1205.66 271.418 1207.31C271.418 1208.96 273.462 1209.89 277.046 1209.89ZM277.046 1202.47C282.338 1202.47 285.586 1204.26 285.586 1207.31C285.586 1210.36 282.338 1212.16 277.046 1212.16C271.782 1212.16 268.534 1210.36 268.534 1207.31C268.534 1204.26 271.782 1202.47 277.046 1202.47ZM306.584 1209.52V1206.58H295.16V1209.52H306.584ZM306.584 1204.34V1201.32H309.468V1211.85H292.304V1201.32H295.16V1204.34H306.584ZM308.88 1196.98H312.352V1199.33H289.448V1196.98H306.024C306.612 1194.21 306.668 1192.14 306.668 1190.29H292.332V1187.96H309.496V1189.9C309.496 1191.86 309.496 1193.98 308.88 1196.98ZM329.318 1189.76V1192.05H314.394V1189.76H320.414V1186.87H323.298V1189.76H329.318ZM318.482 1198.02C318.482 1199.61 319.854 1200.56 321.842 1200.56C323.858 1200.56 325.23 1199.61 325.23 1198.02C325.23 1196.42 323.858 1195.47 321.842 1195.47C319.854 1195.47 318.482 1196.42 318.482 1198.02ZM327.974 1198.02C327.974 1200.9 325.482 1202.8 321.842 1202.8C318.23 1202.8 315.71 1200.9 315.71 1198.02C315.71 1195.16 318.23 1193.23 321.842 1193.23C325.482 1193.23 327.974 1195.16 327.974 1198.02ZM321.002 1204.37V1209.33H335.114V1211.68H318.09V1204.37H321.002ZM334.106 1194.94H337.69V1197.32H334.106V1205.83H331.222V1186.87H334.106V1194.94ZM365.565 1186.84V1199.7H362.681V1186.84H365.565ZM348.009 1193.4C348.009 1195.41 349.633 1196.73 351.817 1196.73C354.029 1196.73 355.681 1195.41 355.681 1193.4C355.681 1191.38 354.029 1190.06 351.817 1190.06C349.633 1190.06 348.009 1191.38 348.009 1193.4ZM358.481 1193.4C358.481 1196.73 355.653 1199.08 351.817 1199.08C348.009 1199.08 345.209 1196.73 345.209 1193.4C345.209 1190.06 348.009 1187.68 351.817 1187.68C355.653 1187.68 358.481 1190.06 358.481 1193.4ZM351.873 1209.58H366.321V1211.85H349.045V1205.21H362.709V1203.11H348.989V1200.84H365.565V1207.34H351.873V1209.58ZM379.59 1199.05V1194.88H373.402V1199.05H379.59ZM382.446 1188.69V1201.38H370.518V1188.69H373.402V1192.64H379.59V1188.69H382.446ZM376.286 1203.67V1209.33H390.398V1211.68H373.374V1203.67H376.286ZM389.39 1194.32H392.974V1196.7H389.39V1205.46H386.506V1186.9H389.39V1194.32ZM409.744 1189.78V1192.11H394.708V1189.78H400.812V1186.96H403.696V1189.78H409.744ZM398.908 1198.1C398.908 1199.64 400.28 1200.59 402.268 1200.59C404.256 1200.59 405.6 1199.64 405.6 1198.1C405.6 1196.53 404.256 1195.58 402.268 1195.58C400.28 1195.58 398.908 1196.53 398.908 1198.1ZM403.696 1202.69V1205.04C405.852 1204.93 408.008 1204.79 410.024 1204.48L410.248 1206.61C404.844 1207.56 398.992 1207.62 394.652 1207.62L394.26 1205.24C396.192 1205.24 398.46 1205.24 400.812 1205.16V1202.69C398.012 1202.22 396.192 1200.51 396.192 1198.1C396.192 1195.24 398.656 1193.37 402.268 1193.37C405.852 1193.37 408.316 1195.24 408.316 1198.1C408.316 1200.51 406.496 1202.24 403.696 1202.69ZM417.92 1197.43V1199.81H414.336V1212.16H411.452V1186.84H414.336V1197.43H417.92Z" fill="white"/>
</g>
<defs>
<filter id="filter0_d_117_144" x="0.728027" y="0" width="684.293" height="1244.64" filterUnits="userSpaceOnUse" color-interpolation-filters="sRGB">
<feFlood flood-opacity="0" result="BackgroundImageFix"/>
<feColorMatrix in="SourceAlpha" type="matrix" values="0 0 0 0 0 0 0 0 0 0 0 0 0 0 0 0 0 0 127 0" result="hardAlpha"/>
<feOffset dy="4"/>
<feGaussianBlur stdDeviation="2"/>
<feComposite in2="hardAlpha" operator="out"/>
<feColorMatrix type="matrix" values="0 0 0 0 0 0 0 0 0 0 0 0 0 0 0 0 0 0 0.25 0"/>
<feBlend mode="normal" in2="BackgroundImageFix" result="effect1_dropShadow_117_144"/>
<feBlend mode="normal" in="SourceGraphic" in2="effect1_dropShadow_117_144" result="shape"/>
</filter>
</defs>
</svg>
